<svg width="28" height="25" viewBox="0 0 28 25" fill="none" xmlns="http://www.w3.org/2000/svg">
<path fill-rule="evenodd" clip-rule="evenodd" d="M3.0738 0.605663C2.85809 0.658669 2.45105 0.816409 2.16927 0.956338C1.73669 1.17108 1.58193 1.28616 1.17494 1.69598C0.628347 2.24642 0.406615 2.59064 0.167072 3.26058C0.00906553 3.7025 0 3.76958 0 4.50101C0 5.23244 0.00906553 5.29952 0.167072 5.74144C0.406029 6.40973 0.627494 6.75379 1.1751 7.30722C1.6014 7.73804 1.7217 7.82555 2.21497 8.06323C2.52176 8.2111 2.94549 8.36996 3.15656 8.4163C3.69713 8.5349 4.446 8.52509 4.96396 8.39263C6.05667 8.11319 6.7848 7.57801 7.46796 6.55211C7.80248 6.04977 7.92785 5.90798 8.19555 5.72923C8.74647 5.36133 8.93396 5.32757 10.4251 5.32757C11.9163 5.32757 12.1038 5.36133 12.6547 5.72923C12.9224 5.90798 13.0478 6.04977 13.3823 6.55211C13.9146 7.35132 14.3949 7.78428 15.1323 8.1293C17.1065 9.05308 19.493 8.19948 20.4307 6.23413C20.9571 5.13096 20.9571 3.87106 20.4307 2.7679C19.493 0.802544 17.1065 -0.0510545 15.1323 0.872722C14.3959 1.21732 13.9145 1.65076 13.3848 2.44618C12.94 3.11415 12.6754 3.34228 12.1049 3.54993C11.8239 3.65216 11.6472 3.66917 10.6543 3.68965C8.64755 3.73097 8.2196 3.56321 7.46407 2.43871C6.78053 1.42145 6.05049 0.88728 4.96396 0.609395C4.42547 0.471653 3.62589 0.470106 3.0738 0.605663ZM17.6242 4.50101V5.30091H16.8243H16.0244V4.50101V3.70111H16.8243H17.6242V4.50101ZM9.46526 8.60966C6.99336 9.24793 5.72552 11.9419 6.81876 14.2331C7.75651 16.1985 10.143 17.0521 12.1172 16.1283C12.8545 15.7833 13.3349 15.3503 13.8672 14.5511C14.2017 14.0488 14.327 13.907 14.5947 13.7282C15.1457 13.3603 15.3332 13.3266 16.8243 13.3266C18.3155 13.3266 18.503 13.3603 19.0539 13.7282C19.3216 13.907 19.447 14.0488 19.7815 14.5511C20.4647 15.577 21.1928 16.1122 22.2855 16.3916C22.8035 16.5241 23.5523 16.5339 24.0929 16.4153C24.304 16.3689 24.7277 16.2101 25.0345 16.0622C25.5278 15.8245 25.6481 15.737 26.0744 15.3062C26.622 14.7528 26.8434 14.4087 27.0824 13.7404C27.2404 13.2985 27.2495 13.2314 27.2495 12.5C27.2495 11.7686 27.2404 11.7015 27.0824 11.2596C26.8426 10.5889 26.6211 10.2453 26.0716 9.69209C25.6441 9.26169 25.5209 9.17215 25.0317 8.9364C24.7264 8.78932 24.304 8.63105 24.0929 8.58471C23.5523 8.46611 22.8035 8.47592 22.2855 8.60839C21.1942 8.8875 20.4646 9.42321 19.784 10.4452C19.3392 11.1131 19.0746 11.3413 18.5041 11.5489C18.2231 11.6511 18.0464 11.6682 17.0535 11.6886C15.0467 11.73 14.6188 11.5622 13.8633 10.4377C13.1797 9.42044 12.4497 8.88627 11.3632 8.60839C10.8082 8.46648 10.0178 8.46702 9.46526 8.60966ZM11.225 12.5V13.2999H10.4251H9.62524V12.5V11.7001H10.4251H11.225V12.5ZM3.0738 16.6036C2.85809 16.6566 2.45105 16.8144 2.16927 16.9543C1.73669 17.1691 1.58193 17.2841 1.17494 17.694C0.628347 18.2444 0.406615 18.5886 0.167072 19.2586C0.00906553 19.7005 0 19.7676 0 20.499C0 21.2304 0.00906553 21.2975 0.167072 21.7394C0.406029 22.4077 0.627494 22.7518 1.1751 23.3052C1.6014 23.736 1.7217 23.8235 2.21497 24.0612C2.52176 24.2091 2.94549 24.3679 3.15656 24.4143C3.69713 24.5329 4.446 24.5231 4.96396 24.3906C6.05667 24.1112 6.7848 23.576 7.46796 22.5501C7.80248 22.0478 7.92785 21.906 8.19555 21.7272C8.74647 21.3593 8.93396 21.3256 10.4251 21.3256C11.9163 21.3256 12.1038 21.3593 12.6547 21.7272C12.9224 21.906 13.0478 22.0478 13.3823 22.5501C13.9146 23.3493 14.3949 23.7823 15.1323 24.1273C17.1065 25.0511 19.493 24.1975 20.4307 22.2321C20.9571 21.1289 20.9571 19.869 20.4307 18.7659C19.493 16.8005 17.1065 15.9469 15.1323 16.8707C14.3959 17.2153 13.9145 17.6487 13.3848 18.4442C12.94 19.1121 12.6754 19.3403 12.1049 19.5479C11.8239 19.6501 11.6472 19.6671 10.6543 19.6876C8.64755 19.729 8.2196 19.5612 7.46407 18.4367C6.78053 17.4194 6.05049 16.8853 4.96396 16.6074C4.42547 16.4696 3.62589 16.4681 3.0738 16.6036ZM17.6242 20.499V21.2989H16.8243H16.0244V20.499V19.6991H16.8243H17.6242V20.499Z" fill="white"/>
</svg>
